<svg xmlns:inkscape="http://www.inkscape.org/namespaces/inkscape" xmlns:sodipodi="http://sodipodi.sourceforge.net/DTD/sodipodi-0.dtd" xmlns:xlink="http://www.w3.org/1999/xlink" xmlns="http://www.w3.org/2000/svg" xmlns:svg="http://www.w3.org/2000/svg" id="svg2" width="512" height="512" viewBox="0 0 512 512" sodipodi:docname="newsletter sign up.png"><defs id="defs6"></defs><g inkscape:groupmode="layer" inkscape:label="Image" id="g8"><image width="512" height="512" preserveAspectRatio="none" id="image10" style="opacity:1;fill:#f4f9f4;fill-opacity:1;stroke-dasharray:none;stroke-dashoffset:0;paint-order:fill markers stroke"></image><path style="opacity:1;fill:#f4f9f4;fill-opacity:1;stroke:#1e3a5f;stroke-width:0.975238;stroke-dasharray:none;stroke-dashoffset:0;paint-order:fill markers stroke" d="m 231.84234,121.25204 c -2.24728,-0.90419 -3.77571,-5.5223 -6.14299,-18.56097 l -2.3375,-12.874643 -3.72028,-0.628539 c -12.036,-2.033467 -19.9921,-17.747533 -14.43888,-28.518168 4.69218,-9.100609 10.17819,-11.907815 23.27097,-11.907815 10.33501,0 7.87649,0.617917 52.39491,-13.168761 15.92633,-4.932142 19.49448,-5.395725 23.14088,-3.006516 4.4269,2.900616 4.65341,4.691828 4.65341,36.798688 v 30.284017 l -3.41396,3.413957 c -3.04716,3.04716 -3.85922,3.36921 -7.5581,2.99747 -2.27927,-0.22907 -16.34209,-4.00353 -31.25071,-8.387675 -14.90862,-4.384149 -27.74519,-7.97118 -28.52571,-7.97118 -1.83575,0 -1.7978,0.870712 0.53133,12.190475 1.07277,5.21371 1.95048,10.96716 1.95048,12.78545 0,5.16884 -4.13066,8.33387 -8.55385,6.55421 z M 295.3928,91.105 c 0.32558,-0.848441 0.59196,-11.175358 0.59196,-22.948703 0,-17.439013 -0.25279,-21.503091 -1.36407,-21.929528 -1.01187,-0.388289 -33.34708,8.397203 -47.15402,12.811767 -0.86142,0.275424 -1.21905,3.085706 -1.21905,9.579251 v 9.189479 l 3.65714,1.44595 c 2.01143,0.795274 12.21486,3.952288 22.67429,7.015589 10.45943,3.063302 19.456,5.717056 19.99238,5.897234 1.8481,0.6208 2.23129,0.476692 2.82137,-1.061039 z M 233.56952,68.754286 V 61.44 h -6.50606 c -7.92992,0 -10.07298,1.484558 -10.07298,6.977817 0,5.791108 2.489,7.650754 10.24,7.650754 h 6.33904 z" id="path924"></path><path style="opacity:1;fill:#f4f9f4;fill-opacity:1;stroke:#1e3a5f;stroke-width:0.975238;stroke-dasharray:none;stroke-dashoffset:0;paint-order:fill markers stroke" d="m 154.23877,192.28892 c -1.41362,-1.56203 -1.61401,-4.89174 -1.61401,-26.81904 0,-23.73528 0.10131,-25.1369 1.95048,-26.98607 4.35433,-4.35433 6.29364,-2.89462 17.62446,13.26581 5.41459,7.72247 10.247,14.04086 10.73869,14.04086 0.49363,0 0.89399,-5.40045 0.89399,-12.05896 0,-10.72302 0.22392,-12.34363 2.02126,-14.62857 2.42904,-3.08802 5.98463,-3.34087 8.70636,-0.61914 1.84461,1.84461 1.95048,3.25079 1.95048,25.90792 0,15.02209 -0.38585,24.67841 -1.03454,25.89049 -1.25212,2.33962 -4.86788,3.84926 -7.54354,3.14955 -1.78931,-0.46791 -9.69885,-10.35432 -17.62788,-22.03367 -1.72969,-2.54781 -3.52591,-4.63239 -3.9916,-4.63239 -0.46569,0 -0.99318,5.22159 -1.1722,11.60354 -0.27355,9.75221 -0.62189,11.93057 -2.1833,13.65333 -2.28783,2.52425 -6.55724,2.65468 -8.71865,0.26634 z" id="path926"></path><path style="opacity:1;fill:#f4f9f4;fill-opacity:1;stroke:#1e3a5f;stroke-width:0.975238;stroke-dasharray:none;stroke-dashoffset:0;paint-order:fill markers stroke" d="m 209.63186,191.67862 -2.39376,-2.39377 v -23.98199 -23.98199 l 2.39376,-2.39377 c 2.26617,-2.26617 2.99631,-2.39377 13.69766,-2.39377 10.70135,0 11.4315,0.1276 13.69767,2.39377 2.92054,2.92055 2.99128,4.38548 0.3725,7.71471 -1.85946,2.36393 -2.60106,2.56962 -9.26476,2.56962 h -7.2435 v 4.87619 4.87619 h 5.42792 c 7.87698,0 11.10721,2.00706 11.13619,6.91933 0.0241,4.07813 -3.15555,6.10743 -10.28026,6.5611 l -6.28385,0.40012 v 4.27497 4.27496 h 7.2435 c 6.6637,0 7.4053,0.20568 9.26476,2.56961 2.52875,3.21478 2.52875,4.32409 0,7.53887 -1.98252,2.52036 -2.24504,2.56961 -13.69766,2.56961 -11.09685,0 -11.79522,-0.11881 -14.07017,-2.39376 z" id="path928"></path><path style="opacity:1;fill:#f4f9f4;fill-opacity:1;stroke:#1e3a5f;stroke-width:0.975238;stroke-dasharray:none;stroke-dashoffset:0;paint-order:fill markers stroke" d="m 260.17625,191.8781 c -1.10835,-1.20686 -2.53503,-4.38858 -3.17041,-7.07048 -1.36459,-5.75989 -8.72376,-41.5858 -8.77347,-42.711 -0.0736,-1.66605 4.87611,-5.56329 7.06568,-5.56329 4.10467,0 6.20997,3.63578 8.40817,14.52056 1.12539,5.57259 2.04616,10.31621 2.04616,10.54136 0,0.22516 0.39844,0.16314 0.88541,-0.13783 0.48698,-0.30097 2.47136,-5.58281 4.40976,-11.73743 2.37813,-7.55087 4.13095,-11.51488 5.38952,-12.18844 5.39381,-2.88668 8.15508,0.097 12.12219,13.09861 1.79288,5.87592 3.70789,10.83286 4.25558,11.01542 0.54768,0.18256 1.20728,-1.11415 1.46577,-2.88159 0.99627,-6.81196 4.56803,-18.59541 6.1747,-20.37077 0.92575,-1.02294 2.63581,-1.85989 3.80013,-1.85989 2.43253,0 6.35789,3.75982 6.35789,6.08975 0,0.86651 -1.99054,11.80965 -4.42343,24.3181 -3.91667,20.13714 -4.705,22.99402 -6.88105,24.93692 -3.00293,2.68117 -7.15506,2.8254 -9.82156,0.34118 -1.70831,-1.59153 -5.48926,-11.83444 -7.6891,-20.8304 -0.6328,-2.58776 -2.07974,-4.28574 -2.92868,-3.4368 -0.22355,0.22354 -1.94113,5.42406 -3.81686,11.5567 -3.62416,11.84907 -5.52788,14.5636 -10.21355,14.5636 -1.49849,0 -3.52234,-0.9524 -4.66285,-2.19428 z" id="path930"></path><path style="opacity:1;fill:#f4f9f4;fill-opacity:1;stroke:#1e3a5f;stroke-width:0.975238;stroke-dasharray:none;stroke-dashoffset:0;paint-order:fill markers stroke" d="m 330.97853,192.72599 c -12.16923,-4.34868 -17.15854,-12.80627 -9.79961,-16.61172 2.89445,-1.49678 3.69556,-1.26718 9.17445,2.62945 3.13285,2.22811 11.44273,3.25442 14.23796,1.75846 2.81043,-1.50409 2.76201,-5.47866 -0.0885,-7.26373 -1.20686,-0.75577 -5.17122,-2.34254 -8.80968,-3.52615 -10.49148,-3.41294 -15.32747,-8.65039 -15.32747,-16.59992 0,-13.98319 16.74254,-20.94447 31.30757,-13.01719 6.04642,3.29088 7.75497,6.23641 5.70558,9.8364 -2.20476,3.87292 -4.77821,4.2815 -10.25694,1.62848 -5.17969,-2.50821 -9.18519,-2.94815 -12.19175,-1.33909 -3.63223,1.94391 -1.9462,3.78504 7.62221,8.32335 13.48869,6.39769 16.82286,9.98171 16.82286,18.08346 0,12.39394 -14.98704,20.89015 -28.39671,16.0982 z" id="path932"></path><path style="opacity:1;fill:#f4f9f4;fill-opacity:1;stroke:#1e3a5f;stroke-width:0.975238;stroke-dasharray:none;stroke-dashoffset:0;paint-order:fill markers stroke" d="m 129.08328,267.3014 -2.30233,-1.86431 v -25.0409 -25.0409 l 2.30233,-1.86431 c 2.97143,-2.40612 6.4543,-2.37245 8.91291,0.0862 1.82664,1.82664 1.95048,3.2508 1.95048,22.43048 v 20.48 h 5.23229 c 8.79279,0 13.34701,5.80165 8.42104,10.72762 -1.70016,1.70015 -3.25079,1.95047 -12.08244,1.95047 -8.52279,0 -10.49761,-0.29609 -12.43428,-1.86431 z" id="path934"></path><path style="opacity:1;fill:#f4f9f4;fill-opacity:1;stroke:#1e3a5f;stroke-width:0.975238;stroke-dasharray:none;stroke-dashoffset:0;paint-order:fill markers stroke" d="m 168.67186,266.77195 -2.39376,-2.39377 V 240.39619 216.4142 l 2.39376,-2.39377 c 2.26617,-2.26617 2.99631,-2.39376 13.69766,-2.39376 10.70135,0 11.4315,0.12759 13.69767,2.39376 2.92054,2.92055 2.99128,4.38549 0.3725,7.71472 -1.85946,2.36393 -2.60106,2.56961 -9.26476,2.56961 h -7.2435 v 4.25505 4.25505 l 6.38615,0.51262 c 7.51137,0.60294 10.1929,2.46256 10.1929,7.06871 0,4.60615 -2.68153,6.46577 -10.1929,7.06871 l -6.38615,0.51262 v 4.25505 4.25505 h 7.2435 c 6.6637,0 7.4053,0.20568 9.26476,2.56961 2.61878,3.32924 2.54804,4.79417 -0.3725,7.71472 -2.26617,2.26617 -2.99632,2.39376 -13.69767,2.39376 -10.70135,0 -11.43149,-0.12759 -13.69766,-2.39376 z" id="path936"></path><path style="opacity:1;fill:#f4f9f4;fill-opacity:1;stroke:#1e3a5f;stroke-width:0.975238;stroke-dasharray:none;stroke-dashoffset:0;paint-order:fill markers stroke" d="m 223.23686,267.11522 c -1.67983,-1.85404 -1.88641,-4.00294 -2.15636,-22.43047 l -0.29855,-20.37999 h -3.89054 c -2.83038,0 -4.54284,-0.65229 -6.28431,-2.39376 -2.92055,-2.92055 -2.99128,-4.38549 -0.37251,-7.71472 l 2.02126,-2.56961 h 14.87541 c 14.28814,0 14.95913,0.0891 16.99589,2.25714 1.16626,1.24143 2.12047,3.18443 2.12047,4.31779 0,2.83669 -4.46924,6.10316 -8.35043,6.10316 h -3.21121 l -0.31442,20.56777 c -0.30974,20.26198 -0.34865,20.59546 -2.61674,22.43048 -3.0076,2.43331 -6.20706,2.36277 -8.51796,-0.18779 z" id="path938"></path><path style="opacity:1;fill:#f4f9f4;fill-opacity:1;stroke:#1e3a5f;stroke-width:0.975238;stroke-dasharray:none;stroke-dashoffset:0;paint-order:fill markers stroke" d="m 271.60381,267.21524 c -1.82664,-1.82664 -1.95048,-3.2508 -1.95048,-22.43048 v -20.48 h -3.94528 c -2.8885,0 -4.58647,-0.64119 -6.33905,-2.39376 -2.92054,-2.92055 -2.99128,-4.38549 -0.3725,-7.71472 2.02111,-2.56943 2.02229,-2.56961 16.471,-2.56961 12.49233,0 14.74512,0.23917 16.63017,1.7656 5.03283,4.07533 1.29028,10.91249 -5.97333,10.91249 h -3.79291 v 19.86086 c 0,18.616 -0.12669,20.02193 -2.02126,22.43048 -2.42904,3.08802 -5.98463,3.34087 -8.70636,0.61914 z" id="path940"></path><path style="opacity:1;fill:#f4f9f4;fill-opacity:1;stroke:#1e3a5f;stroke-width:0.975238;stroke-dasharray:none;stroke-dashoffset:0;paint-order:fill markers stroke" d="m 307.85762,266.90857 c -2.06093,-2.19375 -2.12048,-2.94488 -2.12048,-26.74826 v -24.49113 l 2.56962,-2.02125 c 2.25862,-1.77663 3.91642,-2.02126 13.69766,-2.02126 10.51465,0 11.26,0.13195 13.52181,2.39376 3.01887,3.01887 3.01887,4.8717 0,7.89057 -2.11853,2.11853 -3.23984,2.39376 -9.75238,2.39376 h -7.35861 v 4.38857 4.38857 h 4.90751 c 8.98339,0 13.59674,3.48462 12.48646,9.43144 -0.49984,2.67724 -6.4451,5.1939 -12.27397,5.19562 l -5.12,0.002 v 4.38857 4.38857 h 7.35861 c 6.51254,0 7.63385,0.27523 9.75238,2.39376 3.01887,3.01887 3.01887,4.87171 0,7.89057 -2.27266,2.27267 -2.97944,2.39376 -13.97095,2.39376 -10.84055,0 -11.71211,-0.14362 -13.69766,-2.25714 z" id="path942"></path><path style="opacity:1;fill:#f4f9f4;fill-opacity:1;stroke:#1e3a5f;stroke-width:0.975238;stroke-dasharray:none;stroke-dashoffset:0;paint-order:fill markers stroke" d="m 349.69364,266.5961 c -1.91854,-2.43903 -2.02126,-3.77048 -2.02126,-26.19991 0,-29.8456 -0.50181,-28.76952 13.41621,-28.76952 7.53263,0 10.20555,0.40269 13.60907,2.05031 7.58748,3.67303 11.56583,11.69684 9.83201,19.82984 -0.95886,4.4978 -4.86781,9.98828 -8.18827,11.50118 -1.28568,0.5858 -2.33759,1.49369 -2.33759,2.01755 0,0.52385 2.43688,3.80707 5.41528,7.29604 4.41041,5.16644 5.36049,6.90041 5.12,9.34438 -0.35484,3.60606 -4.08358,6.10662 -7.73819,5.18937 -1.34934,-0.33866 -5.00872,-3.65236 -8.22195,-7.44525 -3.18471,-3.75922 -6.33895,-6.8435 -7.00943,-6.85395 -0.82977,-0.0129 -1.21904,1.69379 -1.21904,5.34481 0,4.06349 -0.47285,5.83665 -1.95048,7.31429 -2.72173,2.72173 -6.27732,2.46888 -8.70636,-0.61914 z m 20.28731,-33.41822 c 1.67319,-1.05984 1.74696,-5.4522 0.1244,-7.40726 -0.74346,-0.89581 -2.87676,-1.46586 -5.48572,-1.46586 h -4.26915 v 4.87619 4.87619 l 4.14476,-0.0149 c 2.27962,-0.008 4.74819,-0.39716 5.48571,-0.86432 z" id="path944"></path><path style="opacity:1;fill:#f4f9f4;fill-opacity:1;stroke:#1e3a5f;stroke-width:0.975238;stroke-dasharray:none;stroke-dashoffset:0;paint-order:fill markers stroke" d="m 37.391015,511.51927 c -0.264403,-0.2644 -2.828867,-0.92605 -5.698808,-1.47032 C 15.23317,506.92755 3.5256907,494.60204 1.4069786,478.16496 0.41426905,470.46347 0.35444141,218.16322 1.3444843,214.61907 c 0.486023,-1.73986 8.2396613,-7.45374 29.1144247,-21.45524 15.648591,-10.49611 32.897731,-21.8859 38.331423,-25.31065 5.433693,-3.42475 11.159314,-7.30377 12.723602,-8.62003 l 2.844161,-2.3932 v -27.26431 -27.2643 l 2.393766,-2.39376 c 2.994947,-2.994946 5.440158,-3.035877 8.163856,-0.136631 l 2.120473,2.257141 0.0514,82.83238 0.05139,82.83239 6.63879,4.38857 c 13.23016,8.7458 50.57555,33.5577 61.74339,41.02167 l 11.43358,7.64159 20.78219,-13.96168 c 30.31556,-20.36629 40.95324,-24.91533 58.26304,-24.91533 17.32678,0 27.94012,4.5441 58.38613,24.99802 l 20.90526,14.04436 3.5086,-2.47829 c 9.55138,-6.74658 28.59793,-19.04367 29.49612,-19.04367 1.87314,0 6.53909,3.24542 6.95555,4.83797 0.8971,3.43052 -1.61034,5.98058 -14.33366,14.57729 -7.28507,4.92228 -13.24559,9.31993 -13.24559,9.77256 0,0.45263 5.59543,4.4396 12.43429,8.85994 6.83885,4.42034 15.94514,10.40234 20.23619,13.29331 4.29104,2.89098 13.26696,8.86935 19.94647,13.28524 6.67952,4.41591 27.96409,18.61133 47.29905,31.54539 36.53996,24.44328 47.68948,31.58449 49.3126,31.58449 0.62097,0 0.95807,-34.82888 0.95807,-98.98667 0,-69.82273 -0.30827,-98.98667 -1.0463,-98.98667 -0.57546,0 -10.12061,6.07731 -21.21142,13.50513 -11.09083,7.42782 -24.19484,15.99372 -29.12003,19.03534 -4.92519,3.04161 -13.04267,8.57477 -18.03885,12.29591 -7.91342,5.89388 -17.67435,12.22549 -27.31917,17.72111 -3.41453,1.9456 -6.25418,1.35239 -8.27264,-1.72817 -2.27316,-3.46927 -0.92128,-6.68348 4.32332,-10.27914 2.54327,-1.74365 5.35838,-3.84675 6.25581,-4.67355 0.89741,-0.82681 3.85099,-2.81987 6.56349,-4.42901 l 4.93184,-2.92571 0.0194,-116.798 c 0.0106,-64.238895 -0.3503,-117.560038 -0.80209,-118.491426 -0.45179,-0.931389 -1.84679,-3.81088 -3.09999,-6.398868 -1.49103,-3.079118 -3.81939,-5.775653 -6.73666,-7.801905 l -4.45815,-3.096471 h -143.931 -143.931 l -4.06564,2.817487 C 99.028103,24.095746 97.068635,30.488236 97.050369,53.394286 97.037219,69.881557 96.892527,71.336033 95.085703,73.142857 92.470255,75.758305 89.078148,75.603329 86.39358,72.745736 84.222025,70.434211 84.193189,70.07795 84.516926,49.55939 l 0.328788,-20.838749 3.169459,-6.434149 C 93.267177,11.624676 102.89661,4.4842914 115.76708,1.7080034 c 7.34134,-1.58360144 273.1245,-1.58360144 280.46584,0 12.87253,2.7767326 22.50085,9.9170896 27.75191,20.5807866 l 3.16946,6.436446 0.48761,64.347524 0.48762,64.34752 4.57646,3.45367 c 2.51706,1.89952 9.97764,6.82735 16.57905,10.95074 6.60143,4.12339 22.94849,14.88452 36.3268,23.91362 21.2355,14.33196 24.42774,16.81602 25.13939,19.5624 0.44834,1.73021 0.6933,62.28336 0.54436,134.56256 l -0.27082,131.41673 -2.08917,5.08996 c -2.94066,7.16445 -8.40925,14.24381 -13.72046,17.76182 -4.17502,2.76541 -7.51053,4.00091 -18.43685,6.82917 -4.04488,1.04702 -438.346717,1.59887 -439.387265,0.55832 z M 483.99323,495.85915 c 4.54575,-1.89598 9.57166,-6.65803 12.0008,-11.37077 1.64226,-3.18613 1.86502,-5.81011 1.86502,-21.96947 v -18.35119 l -8.67776,-5.82481 c -17.85192,-11.98283 -35.7864,-23.91702 -73.24224,-48.73781 -21.18705,-14.03998 -42.0863,-27.9019 -46.44277,-30.80426 -4.35647,-2.90236 -13.7919,-9.18253 -20.96762,-13.95591 -7.17571,-4.77338 -25.20316,-16.77876 -40.06098,-26.67862 C 275.33002,296.08647 273.06439,295.09 256,295.09 c -17.04558,0 -19.25587,0.97366 -52.41742,23.09059 -14.88547,9.92777 -32.76963,21.85396 -39.74258,26.50262 -6.97295,4.64866 -16.06648,10.7338 -20.20784,13.52254 -14.65486,9.86842 -87.337491,57.82928 -97.653347,64.43822 -5.756118,3.6877 -12.461638,8.35428 -14.901153,10.37018 -2.439516,2.01591 -7.248259,5.31025 -10.686096,7.32077 l -6.250612,3.6555 v 18.43983 c 0,20.52895 0.497527,22.57992 6.985017,28.79445 6.871457,6.58234 -12.9455975,6.06647 234.661551,6.10856 200.73646,0.0341 224.96484,-0.12238 228.20571,-1.47411 z M 22.657109,423.12027 c 3.630018,-2.2187 22.438166,-14.61642 41.795882,-27.55047 19.357717,-12.93406 40.609369,-27.02732 47.225889,-31.31837 6.61653,-4.29105 12.54978,-8.32006 13.185,-8.95337 0.63523,-0.6333 5.05671,-3.65164 9.82554,-6.70743 23.07403,-14.78552 29.67083,-19.34989 29.35132,-20.30841 -0.36965,-1.10896 -60.59633,-41.60974 -65.541692,-44.07499 -1.609143,-0.80214 -5.558858,-3.40869 -8.777143,-5.79232 -11.474316,-8.49848 -73.179718,-49.23396 -74.578746,-49.23396 -0.679533,0 -1.002207,31.87 -1.002207,98.98667 0,64.15779 0.337098,98.98667 0.958062,98.98667 0.526932,0 3.928075,-1.81531 7.558095,-4.03402 z M 84.358095,216.01524 c 0,-26.28782 -0.354094,-42.42286 -0.930997,-42.42286 -0.858844,0 -9.330977,5.55375 -48.172447,31.57856 -8.117922,5.43923 -14.254419,10.19109 -14.090247,10.91095 0.277388,1.21628 60.939834,42.35009 62.462263,42.35423 0.402285,10e-4 0.731428,-19.08831 0.731428,-42.42088 z m 360.838095,31.61267 c 8.85029,-5.93717 22.784,-15.20225 30.96381,-20.58907 8.17981,-5.38681 14.87238,-10.3687 14.87238,-11.07085 0,-0.70216 -6.25371,-5.45857 -13.89714,-10.56979 -40.57144,-27.13045 -47.70997,-31.80582 -48.56233,-31.80582 -0.57692,0 -0.93101,16.13504 -0.93101,42.42286 0,23.33257 0.32915,42.41941 0.73143,42.4152 0.40229,-0.004 7.97257,-4.86535 16.82286,-10.80253 z" id="path1698"></path></g></svg>